<svg width="242" height="399" viewBox="0 0 242 399" fill="none" xmlns="http://www.w3.org/2000/svg">
<path d="M51.7902 2.26658C52.1902 3.59991 55.2568 17.5999 58.4568 33.3332C61.7902 49.0666 65.9235 68.5333 67.9235 76.5333C75.5235 108.667 102.057 204.533 104.724 209.6C105.39 210.8 111.39 216.133 118.19 221.467C124.99 226.933 132.057 232.8 133.657 234.667C137.79 238.933 160.857 276.133 167.524 288.933C174.99 303.467 174.59 307.2 164.857 317.733C154.857 328.533 152.19 335.333 152.724 348.4C153.39 360.533 157.924 368.8 167.924 375.867C174.19 380.533 174.99 380.667 187.657 381.067C196.057 381.467 201.39 381.067 202.324 380.133C204.724 377.733 208.59 378.4 208.59 381.2C208.59 384.933 220.724 395.6 227.257 397.333C235.124 399.467 241.257 398.667 241.257 395.467C241.257 392.533 239.257 391.2 231.257 389.2C226.857 388.133 223.657 386 218.857 381.067L212.457 374.267L216.324 370.133C222.057 364.133 224.724 357.867 225.524 349.2C227.257 330.533 218.057 317.067 198.59 310C185.124 305.067 180.99 298.4 155.524 240C143.257 211.6 140.19 204.267 121.524 155.333C107.657 119.2 100.457 101.733 90.5902 79.3333C80.0568 55.5999 52.9902 -8.58888e-05 51.9235 -8.58888e-05C51.5235 -8.58888e-05 51.3902 1.06658 51.7902 2.26658ZM91.2568 93.3333C106.324 128.8 118.19 159.733 117.257 161.333C115.924 163.467 105.924 165.867 104.59 164.533C103.924 163.867 101.79 157.867 99.9235 151.333C94.1902 131.6 79.3902 84.6666 76.9902 79.0666C75.7902 76.2666 74.5902 74.6666 74.3235 75.5999C73.7902 77.1999 81.1235 103.467 104.457 182.667L111.39 206L122.324 217.2C128.324 223.333 132.324 227.867 131.124 227.2C125.924 224.4 111.257 210.933 108.857 206.667C104.057 198.4 70.4568 77.7333 71.6568 73.1999C72.0568 71.7333 71.7902 68.6666 71.1235 66.2666C68.4568 57.5999 64.8568 40.1332 65.6568 39.4666C66.5902 38.3999 77.5235 61.3333 91.2568 93.3333ZM119.924 170.133C123.657 174.133 123.79 175.067 121.924 178.8C119.924 182.4 118.057 182 116.457 177.6C112.324 166.933 113.924 163.6 119.924 170.133ZM112.59 174.8C113.39 177.733 114.457 181.067 114.857 182.133C115.924 184.933 112.457 184.4 108.99 181.067C105.524 177.867 105.257 176.4 107.257 171.333C108.99 166.8 110.857 168 112.59 174.8ZM130.324 192.8C132.457 197.867 136.857 208.533 140.19 216.4C143.39 224.4 145.79 231.2 145.524 231.6C144.057 232.933 137.79 227.467 127.524 215.867C110.724 197.067 108.724 190.533 118.324 185.867C121.39 184.267 124.59 183.2 125.257 183.333C126.057 183.467 128.324 187.733 130.324 192.8ZM144.057 239.6C154.857 257.733 171.524 288.133 170.99 288.667C170.724 288.933 164.19 278.667 156.59 265.6C148.99 252.667 140.99 239.467 138.99 236.267C136.457 232.533 135.79 230.667 136.99 230.667C137.924 230.667 141.124 234.667 144.057 239.6ZM181.39 303.333C186.457 311.067 186.724 314.267 181.79 309.867C177.924 306.533 173.524 296 175.79 296C176.19 296 178.59 299.333 181.39 303.333ZM176.59 314.267C176.457 314.933 174.19 316.933 171.257 318.933C164.457 323.733 158.99 333.333 158.19 341.867C157.124 355.067 162.19 365.6 173.124 373.067C176.59 375.333 178.724 377.333 177.657 377.333C174.057 377.333 163.124 368.933 159.524 363.6C156.457 359.067 155.79 356.4 155.524 347.467C155.124 337.733 155.39 336 158.59 330.4C163.257 322.133 176.724 310 176.59 314.267ZM201.657 319.6C204.19 320.8 208.59 324.667 211.39 328.4C216.324 334.533 216.59 335.333 216.59 344.4C216.59 360.933 208.19 371.733 193.524 373.867C180.59 375.867 165.524 366.267 162.057 353.867C158.857 342.533 162.057 331.733 170.724 324.267C180.057 316 190.59 314.4 201.657 319.6ZM219.257 331.067C222.99 339.6 223.257 351.733 219.924 359.333C218.724 362.267 217.39 364 216.99 363.067C216.724 362.133 216.99 360.4 217.657 359.067C222.19 350.667 220.057 334.667 213.257 325.467C208.99 319.6 208.99 317.333 213.124 321.2C214.857 322.933 217.657 327.333 219.257 331.067ZM230.59 392.667C238.857 395.067 242.324 398.133 235.124 396.667C229.524 395.467 219.257 391.067 219.257 389.867C219.257 389.467 220.19 389.467 221.257 389.867C222.457 390.267 226.59 391.6 230.59 392.667Z" fill="black"/>
<path d="M177.923 1.19995C177.923 1.99995 166.59 28.6666 152.723 60.4C138.857 92 126.19 121.2 124.457 125.2C121.523 132.133 121.523 132.4 123.79 138.533C128.057 150.133 138.59 174.533 139.257 174.667C139.657 174.667 141.257 170.933 142.857 166.267C144.457 161.733 149.923 146.267 155.123 132C178.99 66.4 188.99 21.0666 182.723 6.13328C180.857 1.59995 177.923 -1.33338 177.923 1.19995ZM179.257 21.8666C179.257 40.1333 168.99 78.8 150.323 130.667C142.057 153.867 139.657 159.067 137.923 158C135.79 156.667 128.59 137.467 128.59 132.8C128.59 130.267 130.59 123.467 133.123 117.733C140.857 99.7333 159.923 56.1333 168.457 36.9333C172.857 26.8 176.59 18 176.59 17.2C176.59 16.5333 177.257 16 177.923 16C178.723 16 179.257 18.6666 179.257 21.8666Z" fill="black"/>
<path d="M84.7235 207.6C79.2568 218.933 73.5235 232.133 57.2568 270.533C47.7901 292.933 41.6568 305.333 38.3235 308.4C36.8568 309.6 31.9235 312.133 27.2568 314C10.4568 320.533 3.65681 328 0.723476 342.8C-2.20986 356.933 3.92348 371.733 16.4568 380.4C22.1901 384.4 23.5235 384.667 35.3901 385.067C49.7901 385.6 52.9901 384.667 62.0568 376.4C70.5901 368.667 73.2568 362.533 73.2568 350C73.2568 341.6 72.5901 338.133 70.3235 333.733C67.2568 328.133 55.7901 316 53.5235 316C52.7235 316 52.5901 312.933 53.1235 308.4C54.1901 298.933 60.4568 286.933 77.7901 261.067C88.9901 244.4 91.6568 241.2 99.3901 236C104.19 232.667 108.323 229.467 108.457 228.8C108.59 228.267 106.857 226.533 104.59 225.2C100.057 222.4 96.4568 215.467 93.7901 204.667C92.9901 200.933 91.7901 197.467 91.2568 196.933C90.7235 196.4 87.7901 201.2 84.7235 207.6ZM93.2568 218.667C95.1235 222.267 96.5901 225.733 96.5901 226.267C96.5901 227.467 86.1901 232 83.6568 232C82.7235 232 81.6568 231.333 81.2568 230.533C79.9235 228.533 87.2568 212 89.3901 212C89.6568 212 91.3901 214.933 93.2568 218.667ZM98.7235 231.067C84.9901 240 82.7235 242.667 70.5901 265.333C57.7901 289.067 53.6568 296.267 53.1235 295.6C52.7235 295.333 58.3235 283.333 65.2568 269.067C78.0568 243.2 78.8568 240.8 77.2568 234.667L76.4568 231.333L79.3901 234.8L82.1901 238.4L89.7901 233.867C93.9235 231.333 98.1901 229.333 99.2568 229.467C100.723 229.467 100.723 229.867 98.7235 231.067ZM45.1235 312.133C40.9901 316.4 37.6568 315.867 41.6568 311.467C43.1235 310 45.1235 307.2 46.0568 305.333L47.9235 302L48.3235 305.2C48.5901 307.2 47.5235 309.6 45.1235 312.133ZM58.1901 323.6C66.7235 331.6 71.2568 340.933 71.2568 350.4C71.2568 359.6 68.4568 366.133 61.3901 372.933C55.2568 378.8 47.2568 383.6 47.2568 381.467C47.2568 380.667 48.9901 379.2 50.9901 378.133C56.4568 375.333 64.0568 366.533 66.0568 360.533C70.3235 347.6 66.8568 334.4 56.5901 324.8C52.8568 321.333 49.9235 318.267 49.9235 318C49.9235 316.4 51.7901 317.733 58.1901 323.6ZM49.7901 324C67.6568 333.067 69.5235 360.267 53.2568 372.667C47.2568 377.333 36.3235 379.467 28.8568 377.467C17.1235 374.267 8.59014 362.8 8.59014 350.4C8.72348 327.867 30.3235 314 49.7901 324ZM10.4568 332.8C6.59014 340.267 5.92348 342.8 5.92348 350.4C6.05681 355.6 6.85681 360.667 7.92348 362.667C10.1901 366.533 10.3235 368 8.72348 368C6.45681 368 3.25681 357.333 3.25681 350C3.25681 342.133 4.45681 338.133 9.39014 329.6C14.7235 320.667 15.5235 323.067 10.4568 332.8Z" fill="black"/>
</svg>
