<svg width="63" height="164" viewBox="0 0 63 164" fill="none" xmlns="http://www.w3.org/2000/svg">
<path d="M56 -8.89999C56 -7.96666 52.1333 1.36668 47.3333 12.1667C42.6667 22.8333 30 51.6333 19.3333 76.1667L0 120.833L2.13333 126.833C3.46667 130.167 6.4 137.367 8.8 142.7C11.3333 148.167 13.3333 152.7 13.3333 152.967C13.3333 153.1 14.2667 155.633 15.4667 158.433L17.6 163.5L26.8 138.967C57.0667 58.1667 68.5333 8.03334 60 -6.09999C57.2 -10.5 56 -11.4333 56 -8.89999ZM56.9333 17.2333C55.6 35.6333 46.5333 69.3667 31.6 110.967C20.9333 140.7 18.4 146.967 17.0667 146.967C15.8667 146.967 11.8667 138.433 8 127.633C5.2 119.5 4.66667 121.233 23.4667 79.2333C25.2 75.3667 26.6667 72.0333 26.6667 71.7667C26.6667 71.1 54.6667 8.03334 55.6 6.56668C57.3333 3.76668 57.6 6.70001 56.9333 17.2333Z" fill="black"/>
</svg>
