<svg width="190" height="365" viewBox="0 0 190 365" fill="none" xmlns="http://www.w3.org/2000/svg">
<path d="M0.0014346 -29.5623C-0.131899 -28.4956 9.0681 16.8377 11.2014 25.771C11.4681 26.8377 12.2681 30.7044 13.2014 34.4377C18.2681 56.971 30.8014 104.704 39.4681 134.438C44.9348 153.504 50.1348 171.238 50.8014 173.904C51.8681 177.771 54.4014 180.438 64.2681 187.904C79.4681 199.371 83.3348 203.238 89.3348 213.238C92.0014 217.504 98.1348 227.638 103.068 235.771C116.135 256.838 119.868 264.838 119.868 271.104C119.868 275.904 119.068 277.238 112.535 283.638C103.068 292.704 99.3348 300.971 99.4681 312.438C99.6014 326.704 106.801 338.171 120.135 345.371C125.468 348.304 146.668 348.838 149.335 346.038C151.601 343.904 154.535 344.038 154.535 346.171C154.535 349.371 163.735 358.838 169.601 361.504C177.335 365.104 184.401 366.038 187.468 363.771C191.068 361.104 188.135 357.238 181.735 356.304C174.135 355.238 168.401 351.771 163.868 345.504L159.868 339.904L163.068 336.571C175.868 322.838 175.735 300.571 162.668 286.704C158.535 282.171 151.335 278.304 142.401 275.638C132.668 272.704 129.201 267.104 108.535 220.438C102.935 207.638 95.8681 191.638 92.9348 185.104C90.0014 178.438 84.6681 165.238 81.2014 155.771C77.7348 146.171 70.8014 128.304 65.8681 115.771C61.0681 103.371 54.9348 87.9044 52.2681 81.2377C40.6681 51.371 0.134768 -34.2289 0.0014346 -29.5623ZM21.2014 22.7044C30.9348 42.7044 44.8014 74.8377 53.6014 97.771C57.7348 108.438 62.0014 119.371 63.0681 122.038C64.2681 124.838 65.2014 127.904 65.2014 128.838C65.2014 130.838 54.0014 134.438 52.0014 133.104C51.3348 132.838 50.1348 129.638 49.3348 126.171C46.2681 114.171 28.0014 55.6377 25.2014 49.2377C23.7348 45.6377 22.1348 43.1044 21.7348 43.5044C20.8014 44.4377 23.6014 54.4377 41.8681 116.438C45.0681 127.104 50.1348 144.304 53.2014 154.704L58.6681 173.504L70.2681 185.104C83.6014 198.438 82.5348 198.571 66.9348 185.504C56.1348 176.438 56.0014 176.304 52.6681 165.504C42.4014 131.638 18.5348 44.971 18.5348 41.5044C18.5348 40.8377 19.0681 40.7044 19.8681 41.1044C20.5348 41.5044 20.2681 39.5044 19.3348 36.7044C16.8014 29.5044 12.5348 8.43772 13.7348 8.43772C14.0014 8.43772 17.3348 14.8377 21.2014 22.7044ZM68.4014 139.504C70.9348 142.971 70.9348 143.504 69.2014 146.704C68.1348 148.571 66.6681 149.904 65.8681 149.771C64.8014 149.371 61.4681 139.504 61.2014 136.038C61.2014 133.638 65.7348 135.904 68.4014 139.504ZM60.5348 143.904C61.7348 148.038 62.4014 151.638 62.0014 152.038C60.9348 153.104 56.0014 149.771 54.4014 146.971C52.9348 144.038 54.9348 136.438 57.3348 136.438C57.8681 136.438 59.3348 139.771 60.5348 143.904ZM76.4014 157.371C77.7348 160.971 82.0014 171.504 86.0014 180.838C90.0014 190.171 93.2014 198.438 93.2014 199.104C93.2014 201.104 84.2681 194.571 80.2681 189.638C78.2681 187.104 73.6014 181.904 69.8681 178.038C59.6014 167.371 56.4014 155.104 63.7348 155.104C65.0681 155.104 67.2014 154.171 68.6681 153.104C72.8014 150.038 74.0014 150.704 76.4014 157.371ZM86.8014 200.038C88.5348 202.171 112.801 244.971 117.201 253.771C122.001 263.371 114.535 251.504 101.201 228.438C92.9348 214.171 85.2014 201.371 84.1348 200.038C83.0681 198.838 82.6681 197.771 83.4681 197.771C84.1348 197.771 85.7348 198.838 86.8014 200.038ZM126.001 267.371C127.201 269.771 129.468 273.104 130.935 274.704C132.401 276.438 132.935 277.771 132.135 277.771C129.335 277.771 124.135 271.771 123.335 267.371C122.935 265.104 122.935 263.104 123.201 263.104C123.468 263.104 124.801 265.104 126.001 267.371ZM122.001 282.171C115.868 286.038 112.135 290.038 108.668 296.438C105.335 302.571 104.935 304.438 105.468 312.971C106.001 325.638 110.801 333.771 121.201 340.171C125.201 342.704 127.068 344.304 125.201 343.771C117.735 341.638 108.001 333.904 104.401 326.971C101.601 321.771 100.801 302.304 103.335 300.704C104.135 300.171 105.868 297.504 107.201 294.571C109.468 289.904 120.135 280.438 123.201 280.571C124.001 280.571 123.468 281.371 122.001 282.171ZM147.201 285.638C153.068 288.304 160.668 296.038 162.668 301.638C165.201 308.038 164.268 318.971 160.935 325.638C152.135 342.704 128.401 345.504 115.201 330.971C109.201 324.304 107.868 320.838 107.868 311.638C107.868 291.238 128.935 277.371 147.201 285.638ZM162.001 290.438C169.468 300.171 171.335 314.838 166.535 325.371C163.201 332.704 162.001 332.704 164.668 325.504C168.935 313.771 166.801 300.304 159.068 290.171C157.201 287.771 156.268 285.771 157.068 285.771C157.735 285.771 160.001 287.904 162.001 290.438ZM178.401 359.104C183.068 360.304 186.268 361.771 185.335 362.304C183.468 363.504 170.668 359.771 167.201 356.971C164.535 354.704 164.535 354.704 167.201 355.771C168.668 356.438 173.735 357.904 178.401 359.104Z" fill="black"/>
</svg>
