<svg width="110" height="189" viewBox="0 0 110 189" fill="none" xmlns="http://www.w3.org/2000/svg">
<path d="M82.6503 17.0667C77.9836 26.4 69.8503 44.9333 64.517 58.1333C51.9836 88.8 44.517 104.933 40.3836 110.4C38.2503 113.333 35.0503 115.333 30.6503 116.667C14.6503 121.333 5.71697 129.6 1.98364 142.667C-0.683028 152.267 -0.683028 155.467 2.11697 164C4.78364 172.267 11.317 180.267 19.5836 185.2C25.0503 188.4 27.1836 188.8 37.1836 188.8C47.1836 188.8 49.317 188.4 54.7836 185.2C78.2503 171.333 80.6503 141.467 59.5836 124L52.917 118.267L53.4503 110.933C54.117 102.533 59.4503 92.6667 79.317 62.8C89.317 47.7333 91.317 45.6 99.717 40.1333C104.784 36.8 109.05 33.8667 109.05 33.4667C109.184 33.0667 107.317 31.6 105.184 30.2667C99.5836 27.0667 97.8503 24 94.117 11.0667L90.917 -6.79493e-06L82.6503 17.0667ZM96.7836 31.6C96.6503 31.7333 93.5836 33.0667 89.9836 34.6667C84.517 37.0667 83.0503 37.2 81.5836 35.8667C80.2503 34.4 80.517 32.8 83.317 26.8C88.7836 15.0667 89.0503 14.9333 93.317 23.7333C95.317 28 96.917 31.4667 96.7836 31.6ZM99.317 34.6667C98.917 35.2 95.317 37.7333 91.317 40.2667C83.5836 45.0667 82.2503 47.0667 63.4503 82.8C56.517 96 53.1836 101.467 53.1836 99.7333C53.1836 99.2 59.1836 86.8 66.517 72.1333C77.317 50.4 79.5836 44.9333 78.517 42.8C77.8503 41.4667 77.1836 39.2 77.1836 37.8667C77.317 36.1333 77.8503 36.4 79.317 39.0667C80.3836 41.2 81.717 42.8 82.2503 42.8C82.7836 42.8 86.517 40.6667 90.517 38.1333C97.8503 33.6 100.65 32.4 99.317 34.6667ZM48.6503 111.467C47.717 114.933 41.717 119.733 40.2503 118.267C39.717 117.867 40.517 116.533 42.117 115.467C43.5836 114.4 45.5836 111.6 46.6503 109.333C48.517 104.667 49.9836 106.267 48.6503 111.467ZM55.8503 124.933C58.7836 126.933 63.317 131.867 66.117 136C72.6503 145.733 73.717 156.133 69.1836 166.533C67.5836 170.4 65.4503 173.467 64.517 173.467C63.5836 173.467 62.517 174.4 62.117 175.467C61.1836 177.733 52.3836 183.6 47.8503 184.8C45.9836 185.2 47.717 183.867 51.4503 181.6C72.2503 169.333 73.9836 140.533 54.7836 125.867C47.8503 120.533 48.517 120.133 55.8503 124.933ZM47.5836 126.267C71.1836 136.133 70.917 170.533 47.0503 179.6C34.2503 184.533 19.4503 179.333 12.517 167.467C-1.08303 144.533 23.1836 116 47.5836 126.267ZM11.9836 134.133C5.0503 144.933 4.11697 158.533 9.31697 168.4C10.117 169.867 10.3836 171.333 9.98364 171.733C9.58364 172.133 7.98364 169.867 6.51697 166.667C1.58364 155.6 3.4503 141.6 11.317 131.067C16.2503 124.667 16.6503 126.667 11.9836 134.133Z" fill="black"/>
</svg>
