<svg width="63" height="168" viewBox="0 0 63 168" fill="none" xmlns="http://www.w3.org/2000/svg">
<path d="M56 -4.61154C56 -3.6782 52.1333 5.65513 47.3333 16.4551C42.6667 27.1218 30 55.9218 19.3333 80.4551L0 125.122L2.13333 131.122C3.46667 134.455 6.4 141.655 8.8 146.988C11.3333 152.455 13.3333 156.988 13.3333 157.255C13.3333 157.388 14.2667 159.922 15.4667 162.722L17.6 167.788L26.8 143.255C57.0667 62.4551 68.5333 12.3218 60 -1.81154C57.2 -6.21154 56 -7.14487 56 -4.61154ZM56.9333 21.5218C55.6 39.9218 46.5333 73.6551 31.6 115.255C20.9333 144.988 18.4 151.255 17.0667 151.255C15.8667 151.255 11.8667 142.722 8 131.922C5.2 123.788 4.66667 125.522 23.4667 83.5218C25.2 79.6551 26.6667 76.3218 26.6667 76.0551C26.6667 75.3885 54.6667 12.3218 55.6 10.8551C57.3333 8.05513 57.6 10.9885 56.9333 21.5218Z" fill="black"/>
</svg>
